<svg id="Warstwa_1" data-name="Warstwa 1" xmlns="http://www.w3.org/2000/svg" viewBox="0 0 73.1 90"><title>bin</title><path d="M62.44,37.61a2.1,2.1,0,0,0-2.11,2.11V79.55a2.11,2.11,0,1,0,4.21,0V39.72A2.1,2.1,0,0,0,62.44,37.61Z" transform="translate(-13.45 -5)"/><path d="M37.56,37.61a2.1,2.1,0,0,0-2.1,2.11V79.55a2.11,2.11,0,1,0,4.21,0V39.72A2.1,2.1,0,0,0,37.56,37.61Z" transform="translate(-13.45 -5)"/><path d="M19.44,31.79V83.72a11.59,11.59,0,0,0,3.09,8A10.34,10.34,0,0,0,30.06,95H69.94a10.34,10.34,0,0,0,7.53-3.26,11.59,11.59,0,0,0,3.09-8V31.79A8,8,0,0,0,78.5,16H67.7V13.33A8.28,8.28,0,0,0,59.36,5H40.64a8.28,8.28,0,0,0-8.34,8.33V16H21.5a8,8,0,0,0-2.06,15.83Zm50.5,59H30.06c-3.6,0-6.41-3.09-6.41-7.06V32h52.7V83.72C76.35,87.69,73.54,90.78,69.94,90.78ZM36.51,13.33a4.06,4.06,0,0,1,1.2-2.93,4,4,0,0,1,2.93-1.18H59.36a4,4,0,0,1,2.93,1.18,4.06,4.06,0,0,1,1.2,2.93V16h-27Zm-15,6.85h57a3.79,3.79,0,1,1,0,7.58h-57a3.79,3.79,0,1,1,0-7.58Z" transform="translate(-13.45 -5)"/><path d="M50,37.61a2.11,2.11,0,0,0-2.11,2.11V79.55a2.11,2.11,0,0,0,4.22,0V39.72A2.11,2.11,0,0,0,50,37.61Z" transform="translate(-13.45 -5)"/></svg>