<svg id="Bold" enable-background="new 0 0 24 24" height="512" viewBox="0 0 24 24" width="512" xmlns="http://www.w3.org/2000/svg"><path d="m23.25 2h-9.5c-.414 0-.75.336-.75.75s.336.75.75.75h9.5c.414 0 .75-.336.75-.75s-.336-.75-.75-.75z"/><path d="m23.25 5h-9.5c-.414 0-.75.336-.75.75s.336.75.75.75h9.5c.414 0 .75-.336.75-.75s-.336-.75-.75-.75z"/><path d="m23.25 8h-9.5c-.414 0-.75.336-.75.75s.336.75.75.75h9.5c.414 0 .75-.336.75-.75s-.336-.75-.75-.75z"/><path d="m23.25 15h-9.5c-.414 0-.75.336-.75.75s.336.75.75.75h9.5c.414 0 .75-.336.75-.75s-.336-.75-.75-.75z"/><path d="m23.25 18h-9.5c-.414 0-.75.336-.75.75s.336.75.75.75h9.5c.414 0 .75-.336.75-.75s-.336-.75-.75-.75z"/><path d="m23.25 21h-9.5c-.414 0-.75.336-.75.75s.336.75.75.75h9.5c.414 0 .75-.336.75-.75s-.336-.75-.75-.75z"/><circle cx="5" cy="5" r=".5"/><path d="m1.75 11h7.5c.96 0 1.75-.79 1.75-1.75v-7.5c0-.96-.79-1.75-1.75-1.75h-7.5c-.96 0-1.75.79-1.75 1.75v7.5c0 .96.79 1.75 1.75 1.75zm6.03-4.28c.29.29.29.77 0 1.06-.15.15-.34.22-.53.22s-.38-.07-.53-.22l-.94-.94c-.24.1-.5.16-.78.16-1.1 0-2-.9-2-2s.9-2 2-2 2 .9 2 2c0 .28-.06.54-.16.78z"/><path d="m1.75 24h7.5c.96 0 1.75-.79 1.75-1.75v-7.5c0-.96-.79-1.75-1.75-1.75h-7.5c-.96 0-1.75.79-1.75 1.75v7.5c0 .96.79 1.75 1.75 1.75zm6.03-4.28c.29.29.29.77 0 1.06-.15.15-.34.22-.53.22s-.38-.07-.53-.22l-.94-.94c-.24.1-.5.16-.78.16-1.1 0-2-.9-2-2s.9-2 2-2 2 .9 2 2c0 .28-.06.54-.16.78z"/><circle cx="5" cy="18" r=".5"/></svg>