<?xml version="1.0"?>
<svg xmlns="http://www.w3.org/2000/svg" xmlns:xlink="http://www.w3.org/1999/xlink" xmlns:svgjs="http://svgjs.com/svgjs" version="1.1" width="512" height="512" x="0" y="0" viewBox="0 0 24 24" style="enable-background:new 0 0 512 512" xml:space="preserve" class=""><g><g xmlns="http://www.w3.org/2000/svg"><path d="m23.5 3h-10c-.276 0-.5-.224-.5-.5s.224-.5.5-.5h10c.276 0 .5.224.5.5s-.224.5-.5.5z" fill="#000000" data-original="#000000" class=""/></g><g xmlns="http://www.w3.org/2000/svg"><path d="m23.5 6h-10c-.276 0-.5-.224-.5-.5s.224-.5.5-.5h10c.276 0 .5.224.5.5s-.224.5-.5.5z" fill="#000000" data-original="#000000" class=""/></g><g xmlns="http://www.w3.org/2000/svg"><path d="m23.5 9h-10c-.276 0-.5-.224-.5-.5s.224-.5.5-.5h10c.276 0 .5.224.5.5s-.224.5-.5.5z" fill="#000000" data-original="#000000" class=""/></g><g xmlns="http://www.w3.org/2000/svg"><path d="m23.5 16h-10c-.276 0-.5-.224-.5-.5s.224-.5.5-.5h10c.276 0 .5.224.5.5s-.224.5-.5.5z" fill="#000000" data-original="#000000" class=""/></g><g xmlns="http://www.w3.org/2000/svg"><path d="m23.5 19h-10c-.276 0-.5-.224-.5-.5s.224-.5.5-.5h10c.276 0 .5.224.5.5s-.224.5-.5.5z" fill="#000000" data-original="#000000" class=""/></g><g xmlns="http://www.w3.org/2000/svg"><path d="m23.5 22h-10c-.276 0-.5-.224-.5-.5s.224-.5.5-.5h10c.276 0 .5.224.5.5s-.224.5-.5.5z" fill="#000000" data-original="#000000" class=""/></g><g xmlns="http://www.w3.org/2000/svg"><path d="m9.5 11h-8c-.827 0-1.5-.673-1.5-1.5v-8c0-.827.673-1.5 1.5-1.5h8c.827 0 1.5.673 1.5 1.5v8c0 .827-.673 1.5-1.5 1.5zm-8-10c-.276 0-.5.224-.5.5v8c0 .276.224.5.5.5h8c.276 0 .5-.224.5-.5v-8c0-.276-.224-.5-.5-.5z" fill="#000000" data-original="#000000" class=""/></g><g xmlns="http://www.w3.org/2000/svg"><path d="m9.5 24h-8c-.827 0-1.5-.673-1.5-1.5v-8c0-.827.673-1.5 1.5-1.5h8c.827 0 1.5.673 1.5 1.5v8c0 .827-.673 1.5-1.5 1.5zm-8-10c-.276 0-.5.224-.5.5v8c0 .276.224.5.5.5h8c.276 0 .5-.224.5-.5v-8c0-.276-.224-.5-.5-.5z" fill="#000000" data-original="#000000" class=""/></g><g xmlns="http://www.w3.org/2000/svg"><g><path d="m5 7c-1.103 0-2-.897-2-2s.897-2 2-2 2 .897 2 2-.897 2-2 2zm0-3c-.551 0-1 .449-1 1s.449 1 1 1 1-.449 1-1-.449-1-1-1z" fill="#000000" data-original="#000000" class=""/></g><g><path d="m7.5 8c-.128 0-.256-.049-.354-.146l-1.2-1.2c-.195-.195-.195-.512 0-.707s.512-.195.707 0l1.2 1.2c.195.195.195.512 0 .707-.097.097-.225.146-.353.146z" fill="#000000" data-original="#000000" class=""/></g></g><g xmlns="http://www.w3.org/2000/svg"><path d="m5 20c-1.103 0-2-.897-2-2s.897-2 2-2 2 .897 2 2-.897 2-2 2zm0-3c-.551 0-1 .449-1 1s.449 1 1 1 1-.449 1-1-.449-1-1-1z" fill="#000000" data-original="#000000" class=""/></g><g xmlns="http://www.w3.org/2000/svg"><path d="m7.5 21c-.128 0-.256-.049-.354-.146l-1.2-1.2c-.195-.195-.195-.512 0-.707s.512-.195.707 0l1.2 1.2c.195.195.195.512 0 .707-.097.097-.225.146-.353.146z" fill="#000000" data-original="#000000" class=""/></g></g></svg>
