<?xml version="1.0" encoding="UTF-8" standalone="no"?>
<!-- Creator: CorelDRAW X6 -->

<svg
   xmlns:dc="http://purl.org/dc/elements/1.1/"
   xmlns:cc="http://creativecommons.org/ns#"
   xmlns:rdf="http://www.w3.org/1999/02/22-rdf-syntax-ns#"
   xmlns:svg="http://www.w3.org/2000/svg"
   xmlns="http://www.w3.org/2000/svg"
   xmlns:sodipodi="http://sodipodi.sourceforge.net/DTD/sodipodi-0.dtd"
   xmlns:inkscape="http://www.inkscape.org/namespaces/inkscape"
   xml:space="preserve"
   width="94mm"
   height="54mm"
   version="1.1"
   style="shape-rendering:geometricPrecision; text-rendering:geometricPrecision; image-rendering:optimizeQuality; fill-rule:evenodd; clip-rule:evenodd"
   viewBox="0 0 9400 5400"
   id="svg18"
   sodipodi:docname="eprestafooter.svg"
   inkscape:version="0.92.2 (5c3e80d, 2017-08-06)"><metadata
     id="metadata22"><rdf:RDF><cc:Work
         rdf:about=""><dc:format>image/svg+xml</dc:format><dc:type
           rdf:resource="http://purl.org/dc/dcmitype/StillImage" /><dc:title></dc:title></cc:Work></rdf:RDF></metadata><sodipodi:namedview
     pagecolor="#ffffff"
     bordercolor="#666666"
     borderopacity="1"
     objecttolerance="10"
     gridtolerance="10"
     guidetolerance="10"
     inkscape:pageopacity="0"
     inkscape:pageshadow="2"
     inkscape:window-width="1920"
     inkscape:window-height="1028"
     id="namedview20"
     showgrid="false"
     inkscape:zoom="1.002039"
     inkscape:cx="177.6378"
     inkscape:cy="102.04724"
     inkscape:window-x="-8"
     inkscape:window-y="-8"
     inkscape:window-maximized="1"
     inkscape:current-layer="Warstwa_x0020_1" /><defs
     id="defs4"><style
       type="text/css"
       id="style2"><![CDATA[
    .fil0 {fill:#E61B70}
    .fil1 {fill:#2B2A29;fill-rule:nonzero}
    .fil2 {fill:#FEFEFE;fill-rule:nonzero}
   ]]></style></defs><g
     id="Warstwa_x0020_1"><metadata
       id="CorelCorpID_0Corel-Layer" /><path
       class="fil0"
       d="M2092 1790c458,0 829,371 829,829 0,458 -371,829 -829,829 -458,0 -829,-371 -829,-829 0,-131 30,-254 84,-364 6,0 12,0 18,0 189,0 343,-153 343,-343 0,-9 0,-18 -1,-28 115,-60 246,-95 385,-95z"
       id="path7"
       style="fill:#000000;fill-opacity:1" /><path
       class="fil0"
       d="M1365 1692c122,0 220,99 220,220 0,122 -99,220 -220,220 -122,0 -220,-99 -220,-220 0,-122 99,-220 220,-220z"
       id="path9"
       style="fill:#000000;fill-opacity:1" /><path
       class="fil1"
       d="M3413 2602l0 242 -139 0 0 -703 217 0c155,0 232,75 232,224 0,71 -22,128 -67,171 -44,44 -104,65 -178,65l-66 0zm0 -340l0 219 54 0c74,0 111,-37 111,-111 0,-72 -37,-108 -111,-108l-54 0zm916 582l-159 0 -96 -181c-7,-14 -14,-26 -21,-37 -7,-11 -13,-20 -20,-28 -7,-8 -14,-14 -21,-18 -7,-4 -15,-6 -24,-6l-37 0 0 269 -139 0 0 -703 219 0c149,0 224,64 224,191 0,25 -3,47 -10,68 -7,21 -16,40 -28,56 -12,17 -26,31 -43,43 -17,12 -36,22 -57,28l0 2c9,3 18,9 27,16 9,7 17,16 25,26 8,10 16,20 23,32 7,11 14,22 20,33l116 208zm-377 -585l0 196 60 0c30,0 54,-10 72,-29 18,-20 28,-45 28,-74 0,-62 -32,-92 -97,-92l-62 0zm803 585l-369 0 0 -703 354 0 0 129 -216 0 0 157 201 0 0 128 -201 0 0 161 230 0 0 129zm70 -27l0 -157c25,24 52,42 81,54 29,12 59,18 88,18 18,0 33,-2 46,-5 13,-4 24,-9 33,-15 9,-6 15,-14 19,-22 4,-9 6,-18 6,-28 0,-14 -3,-26 -10,-37 -7,-11 -16,-21 -28,-30 -12,-9 -26,-18 -42,-26 -16,-9 -34,-17 -53,-26 -48,-23 -84,-51 -107,-84 -24,-33 -35,-73 -35,-120 0,-37 6,-68 19,-94 13,-26 30,-48 53,-65 22,-17 48,-29 77,-38 29,-8 60,-12 93,-12 32,0 60,2 85,7 25,4 47,11 68,20l0 147c-10,-8 -22,-15 -34,-22 -12,-6 -25,-11 -38,-16 -13,-4 -26,-7 -38,-9 -13,-2 -25,-3 -36,-3 -16,0 -30,2 -43,5 -13,4 -24,8 -33,15 -9,6 -16,14 -21,22 -5,9 -7,18 -7,29 0,12 3,22 8,32 5,9 13,18 23,27 10,8 22,16 36,24 14,8 30,16 48,25 25,12 47,24 66,38 20,13 36,28 50,45 14,17 25,36 32,57 7,21 11,46 11,75 0,39 -6,72 -19,99 -13,27 -31,48 -53,65 -22,17 -48,28 -78,36 -30,7 -61,11 -94,11 -34,0 -66,-3 -96,-10 -30,-7 -57,-16 -79,-29zm952 -547l-175 0 0 574 -139 0 0 -574 -174 0 0 -129 489 0 0 129zm623 574l-151 0 -44 -157 -219 0 -43 157 -150 0 224 -703 164 0 219 703zm-226 -278l-66 -236c-5,-18 -8,-39 -10,-63l-3 0c-1,21 -5,41 -11,61l-67 238 157 0z"
       id="path11" /><path
       class="fil1"
       d="M3300 3173l0 82 -26 0 0 -198 64 0c22,0 39,5 51,16 12,11 18,24 18,40 0,16 -4,29 -13,39 -9,10 -21,17 -39,20l54 83 -33 0 -52 -82 -25 0zm0 -95l0 75 38 0c14,0 25,-3 32,-10 7,-7 10,-16 10,-28 0,-25 -14,-37 -42,-37l-38 0zm255 -21l0 21 -79 0 0 67 70 0 0 20 -70 0 0 69 79 0 0 21 -105 0 0 -198 105 0zm60 53c0,7 2,13 6,18 4,5 9,8 15,11 6,2 13,4 21,6 8,2 15,4 23,6 8,2 15,5 21,8 6,3 11,9 15,15 4,7 6,15 6,25 0,15 -6,29 -18,40 -12,11 -28,17 -48,17 -20,0 -36,-5 -49,-14 -13,-9 -19,-22 -19,-38l28 0c1,9 4,16 11,22 6,6 16,8 28,8 13,0 23,-3 30,-10 7,-6 11,-14 11,-23 0,-9 -2,-15 -6,-20 -4,-5 -9,-8 -15,-10 -6,-2 -13,-4 -21,-6 -8,-2 -15,-4 -23,-6 -8,-2 -15,-5 -21,-9 -6,-4 -11,-9 -15,-16 -4,-7 -6,-16 -6,-26 0,-17 6,-30 18,-40 12,-10 27,-15 46,-15 19,0 34,4 46,13 11,9 18,21 20,37l-29 0c-1,-8 -4,-14 -11,-20 -7,-6 -15,-8 -27,-8 -11,0 -20,3 -27,8 -7,6 -11,14 -11,25zm211 -53c22,0 39,5 51,16 12,11 18,25 18,42 0,17 -6,31 -17,42 -11,11 -28,16 -51,16l-38 0 0 82 -26 0 0 -198 64 0zm-38 96l38 0c14,0 25,-3 32,-10 7,-7 10,-16 10,-28 0,-25 -14,-37 -42,-37l-38 0 0 75zm282 60c14,-14 21,-33 21,-56 0,-23 -7,-42 -21,-56 -14,-14 -32,-21 -53,-21 -22,0 -39,7 -53,21 -14,14 -21,33 -21,56 0,23 7,42 21,56 14,14 32,21 53,21 21,0 39,-7 53,-21zm-53 45c-28,0 -52,-10 -72,-29 -19,-19 -29,-43 -29,-72 0,-29 10,-53 29,-72 19,-19 43,-28 72,-28 28,0 52,9 71,28 19,19 29,43 29,72 0,29 -10,53 -29,72 -19,19 -43,29 -71,29zm263 -200l26 0 0 198 -26 0 -104 -157 0 157 -26 0 0 -198 26 0 104 157 0 -157zm90 53c0,7 2,13 6,18 4,5 9,8 15,11 6,2 13,4 21,6 8,2 15,4 23,6 8,2 15,5 21,8 6,3 11,9 15,15 4,7 6,15 6,25 0,15 -6,29 -18,40 -12,11 -28,17 -48,17 -20,0 -36,-5 -49,-14 -13,-9 -19,-22 -19,-38l28 0c1,9 4,16 11,22 6,6 16,8 28,8 13,0 23,-3 30,-10 7,-6 11,-14 11,-23 0,-9 -2,-15 -6,-20 -4,-5 -9,-8 -15,-10 -6,-2 -13,-4 -21,-6 -8,-2 -15,-4 -23,-6 -8,-2 -15,-5 -21,-9 -6,-4 -11,-9 -15,-16 -4,-7 -6,-16 -6,-26 0,-17 6,-30 18,-40 12,-10 27,-15 46,-15 19,0 34,4 46,13 11,9 18,21 20,37l-29 0c-1,-8 -4,-14 -11,-20 -7,-6 -15,-8 -27,-8 -11,0 -20,3 -27,8 -7,6 -11,14 -11,25zm220 145l-26 0 0 -75 -64 -123 29 0 49 99 48 -99 29 0 -64 123 0 75zm314 -198l27 0 -60 198 -29 0 -45 -160 -48 160 -29 0 -56 -198 27 0 44 168 48 -168 29 0 44 167 46 -167zm186 0l26 0 0 198 -26 0 -104 -157 0 157 -26 0 0 -198 26 0 104 157 0 -157zm173 0l0 21 -79 0 0 67 70 0 0 20 -70 0 0 69 79 0 0 21 -105 0 0 -198 105 0zm146 53c0,7 2,13 6,18 4,5 9,8 15,11 6,2 13,4 21,6 8,2 15,4 23,6 8,2 15,5 21,8 6,3 11,9 15,15 4,7 6,15 6,25 0,15 -6,29 -18,40 -12,11 -28,17 -48,17 -20,0 -36,-5 -49,-14 -13,-9 -19,-22 -19,-38l28 0c1,9 4,16 11,22 6,6 16,8 28,8 13,0 23,-3 30,-10 7,-6 11,-14 11,-23 0,-9 -2,-15 -6,-20 -4,-5 -9,-8 -15,-10 -6,-2 -13,-4 -21,-6 -8,-2 -15,-4 -23,-6 -8,-2 -15,-5 -21,-9 -6,-4 -11,-9 -15,-16 -4,-7 -6,-16 -6,-26 0,-17 6,-30 18,-40 12,-10 27,-15 46,-15 19,0 34,4 46,13 11,9 18,21 20,37l-29 0c-1,-8 -4,-14 -11,-20 -7,-6 -15,-8 -27,-8 -11,0 -20,3 -27,8 -7,6 -11,14 -11,25zm172 145l-26 0 0 -198 26 0 0 92 81 -92 34 0 -92 100 92 98 -35 0 -81 -88 0 88zm145 -198l26 0 0 178 69 0 0 20 -95 0 0 -198zm227 0l0 21 -79 0 0 67 70 0 0 20 -70 0 0 69 79 0 0 21 -105 0 0 -198 105 0zm104 0c22,0 39,5 51,16 12,11 18,25 18,42 0,17 -6,31 -17,42 -11,11 -28,16 -51,16l-38 0 0 82 -26 0 0 -198 64 0zm-38 96l38 0c14,0 25,-3 32,-10 7,-7 10,-16 10,-28 0,-25 -14,-37 -42,-37l-38 0 0 75zm212 102l-26 0 0 -75 -64 -123 29 0 49 99 48 -99 29 0 -64 123 0 75zm175 0l0 -198 26 0 0 198 -26 0zm199 -198l26 0 0 198 -26 0 -104 -157 0 157 -26 0 0 -198 26 0 104 157 0 -157zm60 21l0 -21 130 0 0 21 -52 0 0 177 -26 0 0 -177 -52 0zm269 -21l0 21 -79 0 0 67 70 0 0 20 -70 0 0 69 79 0 0 21 -105 0 0 -198 105 0zm65 116l0 82 -26 0 0 -198 64 0c22,0 39,5 51,16 12,11 18,24 18,40 0,16 -4,29 -13,39 -9,10 -21,17 -39,20l54 83 -33 0 -52 -82 -25 0zm0 -95l0 75 38 0c14,0 25,-3 32,-10 7,-7 10,-16 10,-28 0,-25 -14,-37 -42,-37l-38 0zm280 -21l26 0 0 198 -26 0 -104 -157 0 157 -26 0 0 -198 26 0 104 157 0 -157zm173 0l0 21 -79 0 0 67 70 0 0 20 -70 0 0 69 79 0 0 21 -105 0 0 -198 105 0zm31 21l0 -21 130 0 0 21 -52 0 0 177 -26 0 0 -177 -52 0zm308 134c14,-14 21,-33 21,-56 0,-23 -7,-42 -21,-56 -14,-14 -32,-21 -53,-21 -22,0 -39,7 -53,21 -14,14 -21,33 -21,56 0,23 7,42 21,56 14,14 32,21 53,21 21,0 39,-7 53,-21zm-53 45c-28,0 -52,-10 -72,-29 -19,-19 -29,-43 -29,-72 0,-29 10,-53 29,-72 19,-19 43,-28 72,-28 28,0 52,9 71,28 19,19 29,43 29,72 0,29 -10,53 -29,72 -19,19 -43,29 -71,29zm357 -200l27 0 -60 198 -29 0 -45 -160 -48 160 -29 0 -56 -198 27 0 44 168 48 -168 29 0 44 167 46 -167zm160 0l0 21 -79 0 0 67 70 0 0 20 -70 0 0 69 79 0 0 21 -105 0 0 -198 105 0z"
       id="path13" /><path
       class="fil2"
       d="M2397 2380c-47,-103 -151,-155 -308,-155 -56,0 -108,7 -161,24 -113,44 -169,133 -169,268l0 184c0,47 9,95 27,141 49,113 158,171 326,171 65,0 123,-3 174,-9 80,-13 120,-20 120,-23l0 -192 -1 0c-90,19 -176,27 -258,27l-19 0c-39,0 -63,-4 -85,-10 -32,-11 -47,-43 -47,-95l0 -23 429 0 0 -4 0 -132c0,-73 -9,-131 -27,-172zm-209 136l0 13 -192 0 0 -36c0,-59 27,-89 95,-89 24,0 46,6 63,17 23,10 34,42 34,95z"
       id="path15" /></g></svg>