<?xml version="1.0" encoding="iso-8859-1"?>
<!-- Generator: Adobe Illustrator 19.0.0, SVG Export Plug-In . SVG Version: 6.00 Build 0)  -->
<svg version="1.1" id="Capa_1" xmlns="http://www.w3.org/2000/svg" xmlns:xlink="http://www.w3.org/1999/xlink" x="0px" y="0px"
	 viewBox="0 0 511.995 511.995" style="enable-background:new 0 0 511.995 511.995;" xml:space="preserve">
<g>
	<g>
		<g>
			<path d="M256.573,0C238.623,0,224,15.104,224,33.664v43.203c0,18.56,14.623,33.664,32.573,33.664s32.573-15.104,32.573-33.664
				V33.664C289.121,15.104,274.493,0,256.573,0z"/>
			<path d="M173.507,46.879C164.193,30.812,144,25.052,128.451,34.048c-15.519,8.96-20.639,29.343-11.331,45.409l21.632,37.437
				c9.247,16.031,29.44,21.827,44.995,12.867c15.519-8.96,20.639-29.343,11.392-45.44L173.507,46.879z"/>
			<path d="M47.427,172.544l37.437,21.632c16.067,9.277,36.449,4.193,45.44-11.361c8.96-15.519,3.169-35.743-12.867-45.025
				L80,116.127C63.969,106.911,43.551,112,34.591,127.58C25.6,143.073,31.36,163.297,47.427,172.544z"/>
			<path d="M76.867,288c18.56,0,33.695-14.592,33.695-32.512c0-17.951-15.135-32.579-33.695-32.543l-43.203-0.067
				C15.104,222.945,0,237.537,0,255.457C0,273.408,15.043,288.031,33.597,288H76.867z"/>
			<path d="M129.761,328.289c-8.929-15.555-29.312-20.675-45.373-11.331l-37.504,21.535c-16.067,9.313-21.791,29.507-12.8,45.056
				c8.929,15.488,29.312,20.639,45.373,11.331l37.437-21.632C133.023,364.032,138.752,343.808,129.761,328.289z"/>
			<path d="M182.815,381.727c-15.549-8.96-35.743-3.231-44.989,12.861l-21.693,37.407c-9.247,16.128-4.127,36.48,11.423,45.44
				c15.519,8.929,35.779,3.231,45.025-12.867l21.601-37.437C203.489,411.069,198.303,390.687,182.815,381.727z"/>
			<path d="M255.488,401.469c-18.017,0.031-32.579,15.104-32.579,33.664l-0.061,43.264c0.061,18.529,14.623,33.597,32.573,33.597
				c17.951,0,32.64-15.073,32.64-33.633l-0.067-43.233C288.067,416.573,273.377,401.505,255.488,401.469z"/>
			<path d="M373.248,395.136c-9.247-16.128-29.44-21.827-44.995-12.867c-15.488,8.991-20.639,29.343-11.325,45.409l21.565,37.504
				c9.313,16.031,29.507,21.791,44.995,12.831c15.549-8.991,20.669-29.373,11.423-45.44L373.248,395.136z"/>
			<path d="M464.573,339.425l-37.437-21.571c-16.067-9.344-36.449-4.193-45.44,11.331c-8.929,15.549-3.2,35.712,12.928,44.959
				L432,395.837c16.128,9.247,36.449,4.157,45.44-11.361C486.431,368.927,480.64,348.703,464.573,339.425z"/>
			<path d="M478.305,224l-43.203,0.031c-18.591-0.031-33.597,14.592-33.664,32.543c0.067,17.951,15.135,32.543,33.695,32.512
				l43.264,0.061c18.529-0.097,33.597-14.653,33.597-32.573S496.865,224,478.305,224z"/>
			<path d="M382.239,183.777c8.991,15.488,29.373,20.608,45.44,11.295l37.504-21.565c16-9.313,21.827-29.471,12.8-45.025
				c-9.027-15.554-29.343-20.639-45.409-11.361l-37.437,21.632C379.008,148.029,373.309,168.192,382.239,183.777z"/>
			<path d="M329.247,130.304c15.488,8.929,35.681,3.2,44.928-12.897L395.868,80c9.247-16.128,4.193-36.449-11.361-45.44
				c-15.549-8.929-35.809-3.2-45.056,12.897l-21.535,37.437C308.608,100.992,313.697,121.344,329.247,130.304z"/>
		</g>
	</g>
</g>
<g>
</g>
<g>
</g>
<g>
</g>
<g>
</g>
<g>
</g>
<g>
</g>
<g>
</g>
<g>
</g>
<g>
</g>
<g>
</g>
<g>
</g>
<g>
</g>
<g>
</g>
<g>
</g>
<g>
</g>
</svg>
