<svg id="Layer_1" height="512" viewBox="0 0 512 512" width="512" xmlns="http://www.w3.org/2000/svg" data-name="Layer 1"><g fill-rule="evenodd"><path d="m256 496c-129.658 0-235.62-103.35-239.851-232h479.7c-4.229 128.65-110.189 232-239.849 232zm0-480c129.663 0 235.62 103.35 239.85 232h-479.7c4.23-128.653 110.19-232 239.85-232zm181.022 58.977a256 256 0 0 0 -362.042 362.043 256 256 0 0 0 362.04-362.04z" fill="#282828"/><path d="m16.149 264c4.231 128.65 110.193 232 239.851 232s235.62-103.35 239.85-232z" fill="#d80027"/><path d="m16.15 248h479.7c-4.23-128.65-110.187-232-239.85-232s-235.62 103.347-239.85 232z" fill="#f5f5f5"/></g></svg>