<?xml version="1.0" encoding="UTF-8" standalone="no"?>
<svg
   xmlns:dc="http://purl.org/dc/elements/1.1/"
   xmlns:cc="http://creativecommons.org/ns#"
   xmlns:rdf="http://www.w3.org/1999/02/22-rdf-syntax-ns#"
   xmlns:svg="http://www.w3.org/2000/svg"
   xmlns="http://www.w3.org/2000/svg"
   xmlns:sodipodi="http://sodipodi.sourceforge.net/DTD/sodipodi-0.dtd"
   xmlns:inkscape="http://www.inkscape.org/namespaces/inkscape"
   viewBox="0 0 42 40"
   version="1.1"
   x="0px"
   y="0px"
   id="svg16"
   sodipodi:docname="mobile-filter-3-wihite.svg"
   inkscape:version="0.92.2 (5c3e80d, 2017-08-06)">
  <metadata
     id="metadata22">
    <rdf:RDF>
      <cc:Work
         rdf:about="">
        <dc:format>image/svg+xml</dc:format>
        <dc:type
           rdf:resource="http://purl.org/dc/dcmitype/StillImage" />
        <dc:title>filter</dc:title>
      </cc:Work>
    </rdf:RDF>
  </metadata>
  <defs
     id="defs20" />
  <sodipodi:namedview
     pagecolor="#ffffff"
     bordercolor="#666666"
     borderopacity="1"
     objecttolerance="10"
     gridtolerance="10"
     guidetolerance="10"
     inkscape:pageopacity="0"
     inkscape:pageshadow="2"
     inkscape:window-width="1920"
     inkscape:window-height="1028"
     id="namedview18"
     showgrid="false"
     inkscape:zoom="5.9"
     inkscape:cx="21"
     inkscape:cy="33.559322"
     inkscape:window-x="-8"
     inkscape:window-y="-8"
     inkscape:window-maximized="1"
     inkscape:current-layer="svg16" />
  <title
     id="title2">filter</title>
  <desc
     id="desc4">Created with Sketch.</desc>
  <g
     id="g10"
     transform="translate(0,4)"
     style="fill:#ffffff;fill-rule:evenodd;stroke:none;stroke-width:1;fill-opacity:1">
    <g
       transform="translate(-319,-29)"
       id="g8"
       style="fill:#ffffff;fill-opacity:1">
      <path
         d="m 330.7227,36.4155 c -1.493,0 -2.708,-1.214 -2.708,-2.708 0,-1.493 1.215,-2.708 2.708,-2.708 1.493,0 2.708,1.215 2.708,2.708 0,1.494 -1.215,2.708 -2.708,2.708 m 28.277,-3.66 h -23 c -0.247,0 -0.466,0.099 -0.641,0.248 -0.343,-2.26 -2.281,-4.004 -4.636,-4.004 -2.277,0 -4.181,1.626 -4.614,3.778 -0.037,-0.004 -0.07,-0.022 -0.109,-0.022 h -6 c -0.552,0 -1,0.448 -1,1 0,0.552 0.448,1 1,1 h 6 c 0.048,0 0.088,-0.021 0.134,-0.027 0.468,2.105 2.344,3.687 4.589,3.687 2.324,0 4.248,-1.697 4.627,-3.915 0.176,0.154 0.399,0.255 0.65,0.255 h 24 c 0.553,0 1,-0.448 1,-1 0,-0.552 -0.447,-1 -1,-1 z m 1.0001,12.0002 h -5.667 c -0.249,-2.365 -2.23,-4.22 -4.659,-4.22 -2.429,0 -4.41,1.855 -4.658,4.22 h -25.016 c -0.552,0 -1,0.447 -1,1 0,0.552 0.448,1 1,1 h 25.238 c 0.633,1.852 2.372,3.196 4.436,3.196 2.064,0 3.803,-1.344 4.437,-3.196 h 5.889 c 0.552,0 1,-0.448 1,-1 0,-0.553 -0.448,-1 -1,-1 z m -10.326,3.196 c -1.493,0 -2.708,-1.215 -2.708,-2.708 0,-1.493 1.215,-2.708 2.708,-2.708 1.493,0 2.708,1.215 2.708,2.708 0,1.493 -1.215,2.708 -2.708,2.708 z m 11.3259,7.8034 c 0,-0.552 -0.447,-1 -1,-1 h -24 c -0.257,0 -0.487,0.104 -0.664,0.264 -0.436,-2.149 -2.338,-3.772 -4.613,-3.772 -2.192,0 -4.023,1.513 -4.545,3.544 -0.06,-0.011 -0.115,-0.036 -0.178,-0.036 h -6 c -0.552,0 -1,0.448 -1,1 0,0.553 0.448,1 1,1 h 6 c 0.034,0 0.062,-0.015 0.094,-0.019 0.375,2.224 2.3,3.927 4.629,3.927 2.404,0 4.369,-1.817 4.651,-4.146 0.172,0.142 0.385,0.238 0.626,0.238 h 24 c 0.553,0 1,-0.447 1,-1 z m -30.277,2.908 c -1.493,0 -2.708,-1.214 -2.708,-2.708 0,-1.493 1.215,-2.708 2.708,-2.708 1.493,0 2.708,1.215 2.708,2.708 0,1.494 -1.215,2.708 -2.708,2.708 z"
         id="path6"
         inkscape:connector-curvature="0"
         style="fill:#ffffff;fill-opacity:1" />
    </g>
  </g>
</svg>
