<?xml version="1.0" encoding="UTF-8"?>
<svg xmlns="http://www.w3.org/2000/svg" xmlns:xlink="http://www.w3.org/1999/xlink" xmlns:svgjs="http://svgjs.com/svgjs" version="1.1" width="512" height="512" x="0" y="0" viewBox="0 0 362.773 362.773" style="enable-background:new 0 0 512 512" xml:space="preserve" class=""><g><g xmlns="http://www.w3.org/2000/svg"><path d="m329.659 249.427c4.09-3.009 7.612-7.009 10.103-11.901 5.444-10.667 5.444-23.945 0-34.588-2.492-4.91-5.985-8.909-10.103-11.935 4.09-3.021 7.612-7.026 10.103-11.913 5.444-10.667 5.444-23.939 0-34.611-5.609-10.991-16.145-17.801-27.591-17.801h-83.934c-2.702 0-6.32-.387-8.095-2.167-2.133-2.167-2.133-6.992-2.105-11.23l-.028-5.245c-.119-8.414-.205-17.158 3.408-27.142 9.034-25.031 3.977-43.611-1.866-54.784-6.696-12.772-17.84-22.34-29.81-25.537-3.823-1.041-7.253-.654-10.189 1.092-5.962 3.556-7.828 11.554-10.405 22.608-.768 3.379-1.621 7.043-2.697 11.025-8.858 32.978-32.438 55.825-51.433 74.166-13.784 13.335-25.042 24.383-28.564 36.386l-18.108-.097c-41.33 0-49.419 22.289-49.419 60.803v61.036c0 38.491 8.09 60.774 49.419 60.774l16.833.051 9.745.097c14.108.683 21.276 6.195 30.106 13.13 11.998 9.421 26.903 21.129 45.096 21.129l136.181-.091c5.638.091 15.081-6.167 20.059-16.213 4.801-9.626 4.801-21.601 0-31.255-.683-1.422-1.479-2.753-2.367-3.999 6.576-2.935 12.208-8.237 15.764-15.292 5.444-10.667 5.444-23.91 0-34.577-2.485-4.887-6.012-8.886-10.103-11.919zm-261.341 67.118c-29.48 0-37.569-10.524-37.569-48.947v-61.042c0-38.457 8.095-48.976 37.569-48.976h16.862v158.965zm243.854-14.638c-6.463 1.007-7.492 7.202-3.112 10.962 2.492 2.133 5.097 4.329 6.702 7.589 3.191 6.389 3.191 14.364 0 20.742-2.873 5.808-8.033 9.421-11.054 9.483-.182-.034-132.568.296-132.568.296-16.117 0-28.149-9.449-39.794-18.608-9.04-7.088-18.432-14.285-35.345-15.525v-163.322c0-10.166 12.14-21.925 26.22-35.556 20.025-19.348 44.948-43.44 54.636-79.588 1.092-4.119 1.991-7.942 2.788-11.406 1.394-5.956 3.294-14.08 8.061-13.602 4.762.444 14.245 6.542 20.355 18.222 4.739 9.068 8.795 24.297 1.212 45.301-4.324 11.998-4.198 22.255-4.119 31.295l.063 3.999v1.035c0 3.971 0 8.92 1.69 13.454h-13.801c-3.265 0-5.899 2.628-5.899 5.894 0 3.26 2.634 5.888 5.899 5.888h118.067c6.963 0 13.483 4.363 17.067 11.378 3.732 7.384 3.732 16.509-.028 23.888-3.556 6.992-10.075 11.378-17.038 11.378-3.26 0-5.894 2.64-5.894 5.894 0 3.26 2.634 5.899 5.894 5.899 6.963 0 13.483 4.386 17.067 11.401 3.766 7.356 3.766 16.475-.028 23.825-3.556 7.02-10.075 11.378-17.038 11.378-3.26 0-5.894 2.668-5.894 5.916 0 3.265 2.634 5.905 5.894 5.905 6.963 0 13.483 4.386 17.067 11.406 3.732 7.344 3.732 16.469-.028 23.825-3.559 7.025-10.164 10.319-17.042 11.354z" fill="#7dbb58" data-original="#000000" class=""/></g></g></svg>